#define SerialIcon_width 20
#define SerialIcon_height 8
const uint8_t SerialIcon_bits[] = {
   0xfe, 0xff, 0x07, 0x03, 0x00, 0x08, 0xf9, 0xff, 0x09, 0xab, 0x2a, 0x0d,
   0x5b, 0x95, 0x0d, 0xf1, 0xff, 0x08, 0x01, 0x00, 0x0c, 0xfe, 0xff, 0x07 };
